<svg  viewBox="0 0 16 16" fill="none" xmlns="http://www.w3.org/2000/svg">
<path d="M7.96874 0.697189C7.30624 0.697189 6.70311 1.03406 6.39061 1.56063L6.25311 1.7925L6.01561 1.665C5.79374 1.54469 5.54061 1.48094 5.28749 1.48094C4.40311 1.48094 3.68436 2.2175 3.68436 3.14375C3.68436 3.97188 4.26561 4.6625 5.04374 4.7875L5.28124 4.825V6.49375C7.09061 6.14688 8.90624 6.13125 10.7187 6.49375V4.31563L10.8687 4.23438C11.3594 3.975 11.6844 3.41875 11.6844 2.79219C11.6844 1.89219 11.0375 1.19469 10.2656 1.19469C10.0625 1.19469 9.85936 1.245 9.67499 1.34219L9.48124 1.44219L9.33749 1.28313C8.99999 0.915314 8.49999 0.697189 7.96874 0.697189ZM7.99999 6.78438C7.19999 6.78438 6.40311 6.85938 5.60311 7.00313C5.57499 7.19063 5.56249 7.38438 5.56249 7.58438C5.56249 8.49063 5.84999 9.30938 6.29999 9.8875C6.74999 10.4656 7.34686 10.8031 7.99999 10.8031C8.65311 10.8031 9.24999 10.4656 9.69999 9.8875C10.15 9.30938 10.4375 8.49063 10.4375 7.58438C10.4375 7.38438 10.4219 7.1875 10.3969 7C9.59686 6.85313 8.79999 6.78125 7.99999 6.78438ZM6.52186 10.875L3.73436 11.8031L2.85999 15.3031H10.05L9.59686 12.125L10.1531 12.0438L10.6187 15.3031H13.1406L12.2656 11.8031L9.47811 10.875C9.04686 11.1844 8.54061 11.3656 7.99999 11.3656C7.45936 11.3656 6.95311 11.1844 6.52186 10.875ZM8.68749 12.5219C8.77037 12.5219 8.84985 12.5548 8.90846 12.6134C8.96706 12.672 8.99999 12.7515 8.99999 12.8344C8.99999 12.9173 8.96706 12.9967 8.90846 13.0553C8.84985 13.114 8.77037 13.1469 8.68749 13.1469C8.60461 13.1469 8.52512 13.114 8.46651 13.0553C8.40791 12.9967 8.37499 12.9173 8.37499 12.8344C8.37499 12.7515 8.40791 12.672 8.46651 12.6134C8.52512 12.5548 8.60461 12.5219 8.68749 12.5219ZM8.90624 13.9594C8.98912 13.9594 9.0686 13.9923 9.12721 14.0509C9.18581 14.1095 9.21874 14.189 9.21874 14.2719C9.21874 14.3548 9.18581 14.4342 9.12721 14.4928C9.0686 14.5515 8.98912 14.5844 8.90624 14.5844C8.82336 14.5844 8.74387 14.5515 8.68526 14.4928C8.62666 14.4342 8.59374 14.3548 8.59374 14.2719C8.59374 14.189 8.62666 14.1095 8.68526 14.0509C8.74387 13.9923 8.82336 13.9594 8.90624 13.9594Z" fill="white"/>
</svg>
