<svg viewBox="0 0 16 16" fill="none" xmlns="http://www.w3.org/2000/svg">
<path d="M6.67828 10.7792L6.76265 12.4627H5.94265L5.33453 10.7311L6.67828 10.7792ZM11.3833 10.7895L11.3727 10.9264L11.9398 12.4627H12.7036L12.5267 10.6967C12.1478 10.7491 11.7663 10.7801 11.3839 10.7895H11.3833ZM12.408 5.66203C12.5446 5.66028 12.6809 5.64859 12.8158 5.62703C14.4158 5.38891 13.9561 4.07828 13.9561 4.07828C13.9561 4.07828 12.6948 4.35953 12.3052 4.81016C12.3058 4.81016 11.4264 5.66203 12.4086 5.66203H12.408ZM14.9658 4.87047C14.9658 4.87047 14.753 4.87047 14.4683 4.89609C14.4014 5.16947 14.2573 5.41786 14.0533 5.61172C14.1407 5.75303 14.2184 5.90015 14.2858 6.05203C15.0748 5.75734 14.9667 4.87047 14.9667 4.87047H14.9658ZM15.3345 8.00109V9.29766C15.3345 9.29766 13.6736 10.2945 11.1314 10.2945C11.063 10.2945 10.9927 10.2898 10.923 10.2883L10.7517 12.4627H10.158L9.3939 10.3733L4.31297 10.1898L4.01922 12.4627H3.31203C3.31203 12.4627 1.80734 9.28828 2.58765 6.77328C2.41422 6.65328 2.23203 6.51797 2.06484 6.37641C1.90453 6.45922 1.74422 6.50484 1.59609 6.49672C1.10359 6.47016 0.709529 6.0989 0.665466 6.0564L1.01422 5.69828C1.09547 5.77641 1.36453 5.98359 1.62297 5.99734C1.64075 5.99809 1.65856 5.99694 1.67609 5.9939C1.62259 5.93073 1.57461 5.86308 1.53265 5.79172C1.35609 5.48453 1.3139 5.15672 1.41265 4.89203C1.4554 4.78211 1.52239 4.68324 1.60864 4.60279C1.69488 4.52233 1.79816 4.46236 1.91078 4.42734C2.26359 4.30828 2.74984 4.32265 2.99672 4.58047C3.08859 4.6764 3.22297 4.88797 3.09047 5.22734C2.97828 5.51765 2.7514 5.83172 2.48547 6.07484C2.57515 6.14672 2.67109 6.21891 2.76953 6.28953C3.06515 5.63797 3.54578 5.05266 4.28578 4.60953C5.45509 3.9045 6.79537 3.53366 8.16078 3.53734C9.47415 3.54099 10.7669 3.86402 11.9277 4.47859C11.8396 4.56877 11.7585 4.66539 11.6848 4.76766C11.4473 5.10109 11.3827 5.40797 11.4927 5.67984C11.5817 5.89859 11.8123 6.16172 12.4064 6.16172C12.5677 6.16003 12.7287 6.14645 12.888 6.12109C13.1481 6.0859 13.4012 6.01019 13.638 5.89672C14.1302 6.70047 14.1761 7.73016 14.513 7.80297C14.9127 7.88797 15.3345 8.00109 15.3345 8.00109ZM2.62547 5.04734C2.6389 5.01234 2.65828 4.95016 2.63547 4.92641C2.59422 4.88328 2.48515 4.85578 2.35672 4.85578C2.25955 4.85524 2.16291 4.87022 2.07047 4.90015C1.97265 4.93297 1.91047 4.98797 1.88015 5.06828C1.83453 5.19172 1.86578 5.36891 1.96609 5.54297C2.00876 5.61331 2.05895 5.6788 2.11578 5.73828C2.3239 5.55641 2.52797 5.29953 2.62547 5.04734ZM12.9736 7.59578C12.9736 7.53985 12.957 7.48517 12.9259 7.43866C12.8949 7.39215 12.8507 7.3559 12.799 7.3345C12.7473 7.31309 12.6905 7.30749 12.6356 7.3184C12.5807 7.32931 12.5304 7.35625 12.4908 7.3958C12.4512 7.43535 12.4243 7.48575 12.4134 7.54061C12.4025 7.59547 12.4081 7.65233 12.4295 7.70401C12.4509 7.75569 12.4871 7.79985 12.5337 7.83093C12.5802 7.86201 12.6348 7.87859 12.6908 7.87859C12.7658 7.87859 12.8377 7.8488 12.8908 7.79576C12.9438 7.74272 12.9736 7.67079 12.9736 7.59578Z" fill="white"/>
</svg>
