<svg  viewBox="0 0 16 16" fill="none" xmlns="http://www.w3.org/2000/svg">
<path fill-rule="evenodd" clip-rule="evenodd" d="M7.65502 3.05433C7.26836 2.68633 6.71302 2.50333 5.98902 2.681C5.81103 2.43829 5.57224 2.24675 5.29669 2.12567C4.85136 1.93433 4.29236 1.93833 3.66202 2.30067C3.00269 2.60833 2.68502 3.06067 2.59736 3.53533C2.53802 3.858 2.58969 4.164 2.67469 4.40533C2.11536 4.89467 1.94702 5.45333 2.02736 5.97967C2.09702 6.435 2.34569 6.824 2.58969 7.088C2.54694 7.27158 2.54263 7.46201 2.57702 7.64733C2.68036 7.574 2.72936 7.54 2.84169 7.49433C3.02502 7.41967 3.17502 7.411 3.34169 7.411C3.86669 7.411 4.17036 7.472 4.67102 7.611C4.95476 7.68681 5.22723 7.79979 5.48136 7.947L5.57602 7.90633C5.69504 7.85474 5.82652 7.83898 5.95436 7.861L7.12536 8.06333C7.08022 7.82165 7.05425 7.57678 7.04769 7.331C7.03508 6.74649 7.18488 6.16994 7.48042 5.66549C7.77596 5.16103 8.20565 4.74846 8.72169 4.47367C8.58686 4.3327 8.42342 4.22222 8.24236 4.14967C8.16569 3.79867 7.98869 3.372 7.65502 3.05433ZM4.37969 3.42667C4.41893 3.40724 4.46161 3.39574 4.5053 3.39282C4.54899 3.3899 4.59283 3.39561 4.6343 3.40963C4.67578 3.42365 4.71409 3.44571 4.74705 3.47454C4.78 3.50338 4.80695 3.53842 4.82636 3.57767L5.09002 4.111L5.62769 3.53533C5.68876 3.47421 5.77119 3.43919 5.85758 3.43765C5.94398 3.43612 6.02759 3.4682 6.0908 3.52712C6.154 3.58604 6.19185 3.66721 6.19637 3.7535C6.20089 3.83979 6.17172 3.92446 6.11502 3.98967L5.40602 4.749L5.67369 5.28933L6.11736 4.886C6.18317 4.82967 6.26833 4.80118 6.35479 4.80656C6.44125 4.81194 6.52222 4.85076 6.58054 4.91481C6.63887 4.97886 6.66997 5.0631 6.66726 5.14968C6.66455 5.23626 6.62824 5.31839 6.56602 5.37867L5.98102 5.91033L6.33302 6.62167C6.37154 6.70084 6.37716 6.79204 6.34867 6.87535C6.32017 6.95866 6.25987 7.02731 6.18094 7.06631C6.102 7.10532 6.01084 7.11151 5.92736 7.08353C5.84388 7.05556 5.77485 6.99569 5.73536 6.917L5.37036 6.17933L4.71569 6.31167C4.63097 6.32478 4.54446 6.30475 4.47413 6.25574C4.40379 6.20673 4.35504 6.13251 4.33801 6.0485C4.32097 5.96448 4.33696 5.87713 4.38265 5.8046C4.42834 5.73206 4.50022 5.67992 4.58336 5.659L5.06469 5.56167L4.79936 5.026L3.78636 5.17833C3.74225 5.18683 3.69688 5.18633 3.65298 5.17686C3.60907 5.16738 3.56754 5.14914 3.53086 5.12321C3.49418 5.09728 3.46313 5.06421 3.43955 5.02598C3.41598 4.98774 3.40037 4.94514 3.39367 4.90073C3.38698 4.85632 3.38932 4.81101 3.40057 4.76752C3.41183 4.72404 3.43175 4.68328 3.45915 4.64769C3.48655 4.6121 3.52085 4.58241 3.56001 4.56041C3.59917 4.53841 3.64237 4.52455 3.68702 4.51967L4.48902 4.399L4.22869 3.87267C4.18967 3.79348 4.18366 3.70206 4.21197 3.61844C4.24028 3.53483 4.30059 3.46586 4.37969 3.42667Z" fill="white"/>
<path fill-rule="evenodd" clip-rule="evenodd" d="M8.04535 8.23167L7.87601 8.19867C7.81566 8.03417 7.77167 7.86413 7.74468 7.691L7.73968 7.671C7.70568 7.532 7.68301 7.40967 7.68101 7.31767C7.67376 6.9609 7.74196 6.60662 7.88115 6.27804C8.02033 5.94947 8.22736 5.654 8.48868 5.411C8.50913 5.39167 8.5299 5.37489 8.55101 5.36067C9.22268 4.76067 10.162 4.65633 10.8893 5.25167C10.881 4.43433 11.2127 3.63567 12.016 3.17233L12.2977 3.65967C11.6173 4.052 11.3643 4.78633 11.477 5.57133C13.0287 5.06133 14.2363 6.529 13.783 8.21867C13.6428 8.73723 13.3464 9.20007 12.934 9.54433L12.7307 9.47333C12.1283 9.26433 11.37 9.01133 10.764 8.84433C10.1747 8.68167 9.41635 8.51333 8.80968 8.38667C8.55521 8.33348 8.30043 8.28181 8.04535 8.23167ZM12.518 6.662C12.6047 6.64517 12.6946 6.66345 12.7678 6.71282C12.8411 6.7622 12.8917 6.83863 12.9087 6.92533C12.9697 7.22903 12.9459 7.54366 12.8398 7.83472C12.7338 8.12577 12.5497 8.38201 12.3077 8.57533C12.2391 8.63103 12.1512 8.65719 12.0633 8.64806C11.9754 8.63894 11.8947 8.59527 11.839 8.52667C11.7833 8.45806 11.7572 8.37015 11.7663 8.28225C11.7754 8.19436 11.8191 8.11369 11.8877 8.058C12.0357 7.94056 12.1483 7.78443 12.213 7.60693C12.2777 7.42943 12.292 7.23747 12.2543 7.05233C12.2377 6.96571 12.2561 6.87603 12.3054 6.80293C12.3548 6.72983 12.4311 6.67927 12.5177 6.66233M3.41201 13.9993C4.41201 13.9437 5.03068 13.6593 5.41201 13.243C5.56368 13.4463 5.81801 13.5643 6.09335 13.521C6.43833 13.4665 6.78259 13.4075 7.12601 13.344V11.7823H7.86935V13.2003C8.80935 13.0103 9.95268 12.7493 11.213 12.3983V11.4113H11.9563V12.1847C12.464 12.0337 12.987 11.8687 13.52 11.6887C13.659 11.6463 13.7806 11.5604 13.8671 11.4436C13.9535 11.3269 14.0002 11.1854 14.0002 11.0402C14.0002 10.8949 13.9535 10.7535 13.8671 10.6367C13.7806 10.5199 13.659 10.4341 13.52 10.3917C12.272 9.97125 11.0064 9.60502 9.72668 9.294V11.4113H8.98368V9.119C7.75368 8.83967 6.74701 8.66233 6.09335 8.559C5.96517 8.53833 5.83378 8.55337 5.71359 8.60246C5.59339 8.65156 5.48905 8.73283 5.41201 8.83733C5.03068 8.42067 4.41201 8.13633 3.41201 8.08067C3.36348 8.07837 3.31498 8.08608 3.26955 8.10332C3.22412 8.12056 3.18272 8.14696 3.14792 8.18088C3.11313 8.2148 3.08568 8.25551 3.06729 8.30049C3.0489 8.34547 3.03995 8.39375 3.04101 8.44233C3.04968 9.04667 3.08668 9.52667 3.21268 9.901C2.80435 10.0557 2.41935 10.3677 2.06735 10.8373C1.97735 10.9573 1.97735 11.123 2.06735 11.243C2.41635 11.7087 2.79835 12.0197 3.20268 12.1753C3.09535 12.5387 3.05268 13.0153 3.04168 13.6367C3.04049 13.6852 3.0493 13.7335 3.06757 13.7786C3.08584 13.8236 3.11318 13.8644 3.14788 13.8984C3.18258 13.9324 3.2239 13.9589 3.26929 13.9763C3.31467 13.9937 3.36314 14.0015 3.41168 13.9993M4.14468 10.342L3.47568 10.5953C3.29035 10.6653 3.08235 10.8023 2.86235 11.04C3.08001 11.2753 3.28601 11.412 3.46968 11.4827L4.10901 11.729L3.91501 12.3853C3.85801 12.5787 3.81968 12.8433 3.79935 13.2147C4.51601 13.1047 4.81868 12.839 4.97501 12.5973C5.20001 12.2497 5.26768 11.7423 5.26768 11.04C5.26768 10.3377 5.20001 9.83067 4.97501 9.483C4.81835 9.241 4.51501 8.97533 3.79735 8.865C3.81635 9.225 3.85401 9.47767 3.91668 9.66467L4.14468 10.342Z" fill="white"/>
</svg>
