<svg  viewBox="0 0 16 16" fill="none" xmlns="http://www.w3.org/2000/svg">
<path d="M12.6667 4.66667C12.6667 3.93333 12.0667 3.33333 11.3333 3.33333H9.33334V4.66667H11.3333V6.43333L9.01334 9.33333H6.66668V6H4.00001C2.52668 6 1.33334 7.19333 1.33334 8.66667V10.6667H2.66668C2.66668 11.7733 3.56001 12.6667 4.66668 12.6667C5.77334 12.6667 6.66668 11.7733 6.66668 10.6667H9.65334L12.6667 6.9V4.66667ZM4.66668 11.3333C4.30001 11.3333 4.00001 11.0333 4.00001 10.6667H5.33334C5.33334 11.0333 5.03334 11.3333 4.66668 11.3333Z" fill="white"/>
<path d="M3.33334 4H6.66668V5.33333H3.33334V4ZM12.6667 8.66667C11.56 8.66667 10.6667 9.56 10.6667 10.6667C10.6667 11.7733 11.56 12.6667 12.6667 12.6667C13.7733 12.6667 14.6667 11.7733 14.6667 10.6667C14.6667 9.56 13.7733 8.66667 12.6667 8.66667ZM12.6667 11.3333C12.3 11.3333 12 11.0333 12 10.6667C12 10.3 12.3 10 12.6667 10C13.0333 10 13.3333 10.3 13.3333 10.6667C13.3333 11.0333 13.0333 11.3333 12.6667 11.3333Z" fill="white"/>
</svg>
