<svg viewBox="0 0 16 16" fill="none" xmlns="http://www.w3.org/2000/svg">
<path fill-rule="evenodd" clip-rule="evenodd" d="M7.77997 3.37397C6.37984 1.63622 3.87843 1.53163 2.35334 3.14706C1.28484 4.27884 1.00706 5.93097 1.51997 7.33334H4.254L6 3.84262L8 7.842L9 5.84263L9.74534 7.33334H14.4801C14.993 5.931 14.7152 4.27884 13.6467 3.14706C12.1216 1.53166 9.62022 1.63622 8.22006 3.37397L8.00003 3.64706L7.77997 3.37397ZM13.6644 8.66666H9.07868L8 10.824L6 6.824L5.07868 8.66666H2.33568C2.34154 8.67295 2.34742 8.67923 2.35334 8.6855L7.99718 14.6637L7.99997 14.6667H8L13.6467 8.6855C13.6526 8.67925 13.6585 8.67297 13.6643 8.66666" fill="white"/>
</svg>
