<svg viewBox="0 0 16 16" fill="none" xmlns="http://www.w3.org/2000/svg">
<path d="M11.3333 14.6667C10.7778 14.6667 10.3056 14.4722 9.91668 14.0833C9.52779 13.6944 9.33334 13.2222 9.33334 12.6667C9.33334 12.6 9.35001 12.4444 9.38334 12.2L4.70001 9.46667C4.52223 9.63334 4.31668 9.764 4.08334 9.85867C3.85001 9.95334 3.60001 10.0004 3.33334 10C2.77779 10 2.30557 9.80556 1.91668 9.41667C1.52779 9.02778 1.33334 8.55556 1.33334 8C1.33334 7.44445 1.52779 6.97222 1.91668 6.58334C2.30557 6.19445 2.77779 6 3.33334 6C3.60001 6 3.85001 6.04734 4.08334 6.142C4.31668 6.23667 4.52223 6.36711 4.70001 6.53334L9.38334 3.8C9.36112 3.72222 9.34734 3.64734 9.34201 3.57534C9.33668 3.50334 9.33379 3.42267 9.33334 3.33334C9.33334 2.77778 9.52779 2.30556 9.91668 1.91667C10.3056 1.52778 10.7778 1.33334 11.3333 1.33334C11.8889 1.33334 12.3611 1.52778 12.75 1.91667C13.1389 2.30556 13.3333 2.77778 13.3333 3.33334C13.3333 3.88889 13.1389 4.36111 12.75 4.75C12.3611 5.13889 11.8889 5.33334 11.3333 5.33334C11.0667 5.33334 10.8167 5.286 10.5833 5.19134C10.35 5.09667 10.1445 4.96622 9.96668 4.8L5.28334 7.53334C5.30557 7.61111 5.31957 7.68622 5.32534 7.75867C5.33112 7.83111 5.33379 7.91156 5.33334 8C5.3329 8.08845 5.33023 8.16911 5.32534 8.242C5.32045 8.31489 5.30645 8.38978 5.28334 8.46667L9.96668 11.2C10.1445 11.0333 10.35 10.9029 10.5833 10.8087C10.8167 10.7144 11.0667 10.6671 11.3333 10.6667C11.8889 10.6667 12.3611 10.8611 12.75 11.25C13.1389 11.6389 13.3333 12.1111 13.3333 12.6667C13.3333 13.2222 13.1389 13.6944 12.75 14.0833C12.3611 14.4722 11.8889 14.6667 11.3333 14.6667Z" fill="white"/>
</svg>
