<svg viewBox="0 0 16 16" fill="none" xmlns="http://www.w3.org/2000/svg">
<path d="M4 10.6667C3.63334 10.6667 3.31956 10.5362 3.05867 10.2753C2.79778 10.0144 2.66711 9.70044 2.66667 9.33333C2.66622 8.96622 2.79689 8.65244 3.05867 8.392C3.32045 8.13156 3.63422 8.00089 4 8C4.36578 7.99911 4.67978 8.12978 4.942 8.392C5.20422 8.65422 5.33467 8.968 5.33334 9.33333C5.332 9.69867 5.20156 10.0127 4.942 10.2753C4.68245 10.538 4.36845 10.6684 4 10.6667ZM12 10.6667C11.6333 10.6667 11.3196 10.5362 11.0587 10.2753C10.7978 10.0144 10.6671 9.70044 10.6667 9.33333C10.6662 8.96622 10.7969 8.65244 11.0587 8.392C11.3204 8.13156 11.6342 8.00089 12 8C12.3658 7.99911 12.6798 8.12978 12.942 8.392C13.2042 8.65422 13.3347 8.968 13.3333 9.33333C13.332 9.69867 13.2016 10.0127 12.942 10.2753C12.6824 10.538 12.3684 10.6684 12 10.6667ZM8 10C7.53334 10 7.13889 9.83889 6.81667 9.51667C6.49445 9.19444 6.33334 8.8 6.33334 8.33333C6.33334 7.86667 6.49445 7.47222 6.81667 7.15C7.13889 6.82778 7.53334 6.66667 8 6.66667C8.46667 6.66667 8.86111 6.82778 9.18334 7.15C9.50556 7.47222 9.66667 7.86667 9.66667 8.33333C9.66667 8.8 9.50556 9.19444 9.18334 9.51667C8.86111 9.83889 8.46667 10 8 10ZM4.73334 14C4.81111 13.6111 4.95 13.2582 5.15 12.9413C5.35 12.6244 5.59445 12.344 5.88334 12.1C6.17222 11.856 6.49734 11.6671 6.85867 11.5333C7.22 11.3996 7.60045 11.3329 8 11.3333C8.39956 11.3338 8.78023 11.4004 9.142 11.5333C9.50378 11.6662 9.82867 11.8551 10.1167 12.1C10.4047 12.3449 10.6491 12.6256 10.85 12.942C11.0509 13.2584 11.1898 13.6111 11.2667 14H4.73334ZM2.18334 14C1.95 14 1.75 13.9222 1.58334 13.7667C1.41667 13.6111 1.33334 13.4333 1.33334 13.2333C1.33334 12.8 1.59734 12.3749 2.12534 11.958C2.65334 11.5411 3.26156 11.3329 3.95 11.3333C4.13889 11.3333 4.32222 11.35 4.5 11.3833C4.67778 11.4167 4.85 11.4667 5.01667 11.5333C4.68334 11.8556 4.40556 12.2251 4.18334 12.642C3.96111 13.0589 3.81111 13.5116 3.73334 14H2.18334ZM12.2667 14C12.1889 13.5111 12.0389 13.0584 11.8167 12.642C11.5944 12.2256 11.3167 11.856 10.9833 11.5333C11.15 11.4667 11.3196 11.4167 11.492 11.3833C11.6644 11.35 11.8449 11.3333 12.0333 11.3333C12.7222 11.3333 13.3333 11.5418 13.8667 11.9587C14.4 12.3756 14.6667 12.8004 14.6667 13.2333C14.6667 13.4444 14.5833 13.6251 14.4167 13.7753C14.25 13.9256 14.0444 14.0004 13.8 14H12.2667ZM1.06667 7.46667C0.955558 7.31111 0.911113 7.14444 0.933336 6.96667C0.955558 6.78889 1.04445 6.64444 1.2 6.53333L7.18334 1.95C7.42778 1.76111 7.7 1.66667 8 1.66667C8.3 1.66667 8.57223 1.76111 8.81667 1.95L10.6667 3.36667V3C10.6667 2.72222 10.764 2.48622 10.9587 2.292C11.1533 2.09778 11.3893 2.00044 11.6667 2C11.944 1.99955 12.1802 2.09689 12.3753 2.292C12.5704 2.48711 12.6676 2.72311 12.6667 3V4.9L14.8 6.53333C14.9444 6.64444 15.0307 6.78889 15.0587 6.96667C15.0867 7.14444 15.0449 7.31111 14.9333 7.46667C14.8218 7.62222 14.6773 7.71111 14.5 7.73333C14.3227 7.75556 14.156 7.71111 14 7.6L8 3.01667L2 7.6C1.84445 7.71111 1.67778 7.75556 1.5 7.73333C1.32222 7.71111 1.17778 7.62222 1.06667 7.46667Z" fill="white"/>
</svg>
