<svg viewBox="0 0 16 16" fill="none" xmlns="http://www.w3.org/2000/svg">
<path d="M5.33333 15.3333L4.26667 14.5333L5.66667 12.6667H4C4 12.2778 4.10844 11.6084 4.32533 10.6587C4.54222 9.70889 4.83933 8.73934 5.21667 7.75001C5.59444 6.75001 6.04178 5.87512 6.55867 5.12534C7.07556 4.37556 7.63378 4.00045 8.23333 4.00001C8.64444 4.00001 8.93067 4.12778 9.092 4.38334C9.25333 4.63889 9.48378 5.02223 9.78333 5.53334C10.1389 6.13334 10.4611 6.58334 10.75 6.88334C11.0389 7.18334 11.35 7.41112 11.6833 7.56667C11.8056 7.47778 11.9111 7.41667 12 7.38334C12.0889 7.35001 12.1944 7.33334 12.3167 7.33334C12.5944 7.33334 12.8333 7.43334 13.0333 7.63334C13.2333 7.83334 13.3333 8.06667 13.3333 8.33334V15.3333H12.6667V8.33334C12.6667 8.24445 12.6333 8.16667 12.5667 8.10001C12.5 8.03334 12.4222 8.00001 12.3333 8.00001C12.2444 8.00001 12.1667 8.03334 12.1 8.10001C12.0333 8.16667 12 8.24445 12 8.33334V9.16667H11.3333V8.85001C10.9111 8.61667 10.4778 8.31401 10.0333 7.94201C9.58889 7.57001 9.26111 7.16156 9.05 6.71667L8.66667 8.66667L10 12.65V15.3333H8.66667V12.6667H7.33333L5.33333 15.3333ZM9 3.66667C8.63333 3.66667 8.31956 3.53623 8.05867 3.27534C7.79778 3.01445 7.66711 2.70045 7.66667 2.33334C7.66667 2.24445 7.68889 2.11112 7.73333 1.93334C7.61111 1.87778 7.514 1.79712 7.442 1.69134C7.37 1.58556 7.33378 1.46623 7.33333 1.33334C7.33333 1.14445 7.39733 0.986227 7.52533 0.858672C7.65333 0.731116 7.81156 0.667116 8 0.666672C8.13333 0.666672 8.25289 0.702894 8.35867 0.775338C8.46444 0.847783 8.54489 0.944894 8.6 1.06667C8.66667 1.04445 8.73333 1.02778 8.8 1.01667C8.86667 1.00556 8.93333 1.00001 9 1.00001C9.36667 1.00001 9.68067 1.13067 9.942 1.39201C10.2033 1.65334 10.3338 1.96712 10.3333 2.33334C10.3329 2.69956 10.2024 3.01356 9.942 3.27534C9.68156 3.53712 9.36756 3.66756 9 3.66667Z" fill="white"/>
</svg>
