<svg viewBox="0 0 16 16" fill="none" xmlns="http://www.w3.org/2000/svg">
<path d="M2 9.33334C2 10.2 2.53333 10.9333 3.33333 11.2V13.3333H2V14.6667H6V13.3333H4.66667V11.2C5.46667 10.9333 6 10.2 6 9.33334V4H2V9.33334ZM3.33333 5.33334H4.66667V7.33334H3.33333V5.33334ZM13.7333 5.66667L13.0667 5.46667C12.8667 5.4 12.6667 5.13334 12.6667 4.86667V2C12.6667 1.66667 12.3333 1.33334 12 1.33334H10C9.6 1.33334 9.33333 1.66667 9.33333 2V4.86667C9.33333 5.13334 9.13333 5.4 8.86667 5.53334L8.26667 5.73334C7.73333 5.93334 7.33333 6.4 7.33333 7V13.3333C7.33333 14.0667 7.93333 14.6667 8.66667 14.6667H13.3333C14.0667 14.6667 14.6667 14.0667 14.6667 13.3333V6.93334C14.6667 6.4 14.3333 5.86667 13.7333 5.66667ZM10.6667 2.66667H11.3333V3.33334H10.6667V2.66667ZM8.66667 6.93334L9.26667 6.73334C10.1333 6.46667 10.6667 5.73334 10.6667 4.86667V4.66667H11.3333V4.86667C11.3333 5.73334 11.8667 6.46667 12.6667 6.73334L13.3333 6.93334V8H8.66667V6.93334ZM13.3333 13.3333H8.66667V12H13.3333V13.3333Z" fill="white"/>
</svg>
