<svg  viewBox="0 0 16 16" fill="none" xmlns="http://www.w3.org/2000/svg">
<path d="M14.6667 2L6.66668 2.94V4H14.6667V4.66667H6.66668V8H14.6667C14.6667 9.20667 14.2867 10.3067 13.5467 11.3C12.8067 12.2933 11.8467 13.02 10.6667 13.5V14.6667H5.33334V13.5C4.16001 13.02 3.19334 12.2867 2.45334 11.3C1.71334 10.3133 1.33334 9.20667 1.33334 8H3.33334V2.66667L14.6667 1.33334V2ZM4.00001 3.25334V4H4.66668V3.18667L4.00001 3.25334ZM4.00001 4.66667V8H4.66668V4.66667H4.00001ZM6.00001 8V4.66667H5.33334V8H6.00001ZM6.00001 4V3.03334L5.33334 3.09334V4H6.00001Z" fill="white"/>
</svg>
