<svg  viewBox="0 0 16 16" fill="none" xmlns="http://www.w3.org/2000/svg">
<path d="M2.51866 2.43667C2.398 2.67667 2.33866 2.974 2.21999 3.56733L1.82133 5.56066C1.76483 5.83245 1.76439 6.1129 1.82004 6.38486C1.87569 6.65682 1.98627 6.91456 2.14499 7.1423C2.30371 7.37004 2.50724 7.56299 2.74312 7.70934C2.979 7.85569 3.24227 7.95236 3.51681 7.99343C3.79135 8.0345 4.07138 8.01911 4.33977 7.94819C4.60815 7.87728 4.85924 7.75233 5.07766 7.58101C5.29607 7.40969 5.47723 7.19559 5.61003 6.95182C5.74283 6.70806 5.82449 6.43975 5.84999 6.16333L5.89666 5.70333C5.8714 5.99589 5.90744 6.2905 6.00248 6.56834C6.09752 6.84619 6.24948 7.10115 6.44863 7.31694C6.64779 7.53273 6.88977 7.7046 7.15912 7.82157C7.42846 7.93855 7.71924 7.99805 8.01289 7.99628C8.30653 7.99451 8.59657 7.93151 8.86449 7.8113C9.1324 7.69109 9.37229 7.51631 9.56884 7.29814C9.76538 7.07996 9.91425 6.82319 10.0059 6.54422C10.0976 6.26526 10.1301 5.97023 10.1013 5.678L10.15 6.16333C10.1755 6.43975 10.2572 6.70806 10.39 6.95182C10.5228 7.19559 10.7039 7.40969 10.9223 7.58101C11.1408 7.75233 11.3918 7.87728 11.6602 7.94819C11.9286 8.01911 12.2086 8.0345 12.4832 7.99343C12.7577 7.95236 13.021 7.85569 13.2569 7.70934C13.4928 7.56299 13.6963 7.37004 13.855 7.1423C14.0137 6.91456 14.1243 6.65682 14.1799 6.38486C14.2356 6.1129 14.2352 5.83245 14.1787 5.56066L13.78 3.56733C13.6613 2.974 13.602 2.67733 13.4813 2.43667C13.3556 2.18602 13.1786 1.96462 12.9617 1.78683C12.7449 1.60904 12.4931 1.47884 12.2227 1.40467C11.9627 1.33333 11.66 1.33333 11.0547 1.33333H4.94533C4.33999 1.33333 4.03733 1.33333 3.77733 1.40467C3.50691 1.47884 3.2551 1.60904 3.03826 1.78683C2.82142 1.96462 2.64439 2.18602 2.51866 2.43667ZM12.1793 9C12.7002 9.00131 13.2126 8.86788 13.6667 8.61266V9.33333C13.6667 11.8473 13.6667 13.1047 12.8853 13.8853C12.2567 14.5147 11.32 14.6367 9.66666 14.6607V12.3333C9.66666 11.71 9.66666 11.3987 9.53266 11.1667C9.4449 11.0147 9.31867 10.8884 9.16666 10.8007C8.93466 10.6667 8.62333 10.6667 7.99999 10.6667C7.37666 10.6667 7.06533 10.6667 6.83333 10.8007C6.68132 10.8884 6.55509 11.0147 6.46733 11.1667C6.33333 11.3987 6.33333 11.71 6.33333 12.3333V14.6607C4.67999 14.6367 3.74333 14.514 3.11466 13.8853C2.33333 13.1047 2.33333 11.8473 2.33333 9.33333V8.61266C2.7876 8.86799 3.30022 9.00143 3.82133 9C4.59175 9.00048 5.3335 8.70779 5.89599 8.18133C6.46914 8.70955 7.22057 9.00193 7.99999 9C8.77942 9.00193 9.53085 8.70955 10.104 8.18133C10.6665 8.70779 11.4089 9.00048 12.1793 9Z" fill="white"/>
</svg>
