<svg viewBox="0 0 16 16" fill="none" xmlns="http://www.w3.org/2000/svg">
<path d="M5.67334 1.33333H10.3267C10.4813 1.33333 10.6 1.33333 10.704 1.34333C11.4427 1.416 12.0473 1.86 12.304 2.458H3.696C3.95267 1.86 4.55734 1.416 5.296 1.34333C5.39867 1.33333 5.51734 1.33333 5.67334 1.33333ZM4.20667 3.14867C3.28 3.14867 2.52 3.70867 2.26667 4.45133L2.25067 4.498C2.516 4.418 2.79267 4.36467 3.072 4.32933C3.792 4.23667 4.70267 4.23667 5.76001 4.23667H10.3547C11.412 4.23667 12.322 4.23667 13.0427 4.32933C13.3227 4.36533 13.5987 4.41733 13.864 4.498L13.8487 4.45133C13.5953 3.70867 12.8353 3.14867 11.908 3.14867H4.20667Z" fill="white"/>
<path fill-rule="evenodd" clip-rule="evenodd" d="M10.2187 5.028H5.78132C3.53199 5.028 2.40665 5.028 1.77465 5.686C1.14265 6.344 1.29132 7.36 1.58932 9.39267L1.87065 11.3207C2.10399 12.9147 2.22065 13.712 2.81865 14.1893C3.41732 14.6667 4.29865 14.6667 6.06332 14.6667H9.93665C11.7007 14.6667 12.5833 14.6667 13.1813 14.1893C13.7793 13.712 13.896 12.9147 14.1293 11.3207L14.4107 9.39333C14.7087 7.36 14.8573 6.344 14.2253 5.686C13.5933 5.028 12.468 5.028 10.2187 5.028ZM9.72065 10.5293C10.0933 10.2987 10.0933 9.70133 9.72065 9.47067L7.47332 8.07733C7.11132 7.85267 6.66665 8.14467 6.66665 8.60667V11.3933C6.66665 11.8553 7.11132 12.1467 7.47332 11.9227L9.72065 10.5293Z" fill="white"/>
</svg>
