<svg  viewBox="0 0 16 16" fill="none" xmlns="http://www.w3.org/2000/svg">
<path fill-rule="evenodd" clip-rule="evenodd" d="M12.2707 1.53333C12.3987 1.36232 12.562 1.22083 12.7494 1.11845C12.9369 1.01608 13.1442 0.955214 13.3573 0.939986C13.5704 0.924759 13.7842 0.955524 13.9844 1.0302C14.1845 1.10487 14.3663 1.2217 14.5173 1.37277C14.6683 1.52385 14.7851 1.70563 14.8597 1.90579C14.9343 2.10595 14.965 2.31982 14.9497 2.53289C14.9344 2.74595 14.8735 2.95324 14.771 3.14069C14.6686 3.32815 14.5271 3.49138 14.356 3.61933L12.6093 4.92933L14.004 6.324L6.32401 14.004L4.92934 12.61L3.61867 14.3567C3.4908 14.528 3.32757 14.6697 3.14006 14.7724C2.95256 14.875 2.74517 14.9361 2.53197 14.9514C2.31877 14.9668 2.10475 14.9362 1.90445 14.8615C1.70415 14.7869 1.52225 14.6701 1.3711 14.5189C1.21996 14.3678 1.1031 14.1859 1.02847 13.9856C0.953833 13.7853 0.92317 13.5712 0.938559 13.358C0.953949 13.1448 1.01503 12.9374 1.11766 12.7499C1.22028 12.5624 1.36205 12.3992 1.53334 12.2713L3.28001 10.9607L1.88534 9.56667L9.56667 1.886L10.9613 3.28L12.2707 1.53333Z" fill="white"/>
</svg>
