<svg viewBox="0 0 16 16" fill="none" xmlns="http://www.w3.org/2000/svg">
<path d="M12.6667 2.66667H12V2C12 1.6 11.7333 1.33333 11.3333 1.33333C10.9333 1.33333 10.6667 1.6 10.6667 2V2.66667H5.33334V2C5.33334 1.6 5.06668 1.33333 4.66668 1.33333C4.26668 1.33333 4.00001 1.6 4.00001 2V2.66667H3.33334C2.20001 2.66667 1.33334 3.53333 1.33334 4.66667V5.33333H14.6667V4.66667C14.6667 3.53333 13.8 2.66667 12.6667 2.66667ZM1.33334 12.6667C1.33334 13.8 2.20001 14.6667 3.33334 14.6667H12.6667C13.8 14.6667 14.6667 13.8 14.6667 12.6667V6.66667H1.33334V12.6667ZM11.3333 8C11.7333 8 12 8.26666 12 8.66666C12 9.06666 11.7333 9.33333 11.3333 9.33333C10.9333 9.33333 10.6667 9.06666 10.6667 8.66666C10.6667 8.26666 10.9333 8 11.3333 8ZM11.3333 10.6667C11.7333 10.6667 12 10.9333 12 11.3333C12 11.7333 11.7333 12 11.3333 12C10.9333 12 10.6667 11.7333 10.6667 11.3333C10.6667 10.9333 10.9333 10.6667 11.3333 10.6667ZM8.00001 8C8.40001 8 8.66668 8.26666 8.66668 8.66666C8.66668 9.06666 8.40001 9.33333 8.00001 9.33333C7.60001 9.33333 7.33334 9.06666 7.33334 8.66666C7.33334 8.26666 7.60001 8 8.00001 8ZM8.00001 10.6667C8.40001 10.6667 8.66668 10.9333 8.66668 11.3333C8.66668 11.7333 8.40001 12 8.00001 12C7.60001 12 7.33334 11.7333 7.33334 11.3333C7.33334 10.9333 7.60001 10.6667 8.00001 10.6667ZM4.66668 8C5.06668 8 5.33334 8.26666 5.33334 8.66666C5.33334 9.06666 5.06668 9.33333 4.66668 9.33333C4.26668 9.33333 4.00001 9.06666 4.00001 8.66666C4.00001 8.26666 4.26668 8 4.66668 8ZM4.66668 10.6667C5.06668 10.6667 5.33334 10.9333 5.33334 11.3333C5.33334 11.7333 5.06668 12 4.66668 12C4.26668 12 4.00001 11.7333 4.00001 11.3333C4.00001 10.9333 4.26668 10.6667 4.66668 10.6667Z" fill="white"/>
</svg>
